<svg width="96" height="96" viewBox="0 0 96 96" fill="none" xmlns="http://www.w3.org/2000/svg">
<path d="M32.4 53.364L15.652 36.62C14.1662 35.1343 12.9876 33.3704 12.1835 31.4292C11.3793 29.4879 10.9655 27.4073 10.9655 25.306C10.9655 23.2048 11.3793 21.1242 12.1835 19.1829C12.9876 17.2417 14.1662 15.4778 15.652 13.992L43.712 42.048L32.4 53.368V53.364ZM59.528 46.116L53.656 52L81.168 79.512L75.512 85.168L47.996 57.652L20.484 85.172L14.828 79.512L53.872 40.464C51.024 34.364 53.024 25.756 59.392 19.388C67.044 11.732 78 10.28 83.856 16.136C89.716 21.992 88.26 32.948 80.604 40.6C74.24 46.968 65.628 48.972 59.528 46.12V46.116Z" fill="#D96704"/>
</svg>
