<svg width="48" height="48" viewBox="0 0 48 48" fill="none" xmlns="http://www.w3.org/2000/svg">
<path d="M16.2001 26.6819L7.82608 18.3099C7.08317 17.567 6.49385 16.6851 6.09179 15.7145C5.68973 14.7438 5.48279 13.7035 5.48279 12.6529C5.48279 11.6023 5.68973 10.562 6.09179 9.59134C6.49385 8.62071 7.08317 7.73877 7.82608 6.9959L21.8561 21.0239L16.2001 26.6839V26.6819ZM29.7641 23.0579L26.8281 25.9999L40.5841 39.7559L37.7561 42.5839L23.9981 28.8259L10.2421 42.5859L7.41408 39.7559L26.9361 20.2319C25.5121 17.1819 26.5121 12.8779 29.6961 9.6939C33.5221 5.8659 39.0001 5.1399 41.9281 8.0679C44.8581 10.9959 44.1301 16.4739 40.3021 20.2999C37.1201 23.4839 32.8141 24.4859 29.7641 23.0599V23.0579Z" fill="#A4A4A4"/>
</svg>
